<svg id="Layer_1" data-name="Layer 1" xmlns="http://www.w3.org/2000/svg" viewBox="0 0 531.24 276.47"><defs><style>.cls-1{fill:#225966;}.cls-2{fill:#fff;}</style></defs><rect class="cls-1" width="531.24" height="276.47"/><path class="cls-2" d="M456.1,58.48H124.46c0-.11-.09-.22-.14-.33l-1.8-4.26-2.77-6.61c-2.4-5.75-4.89-11.7-7.59-17.55a74.82,74.82,0,0,0-8.43-14.67,38.67,38.67,0,0,0-6.31-6.5C88.69,1.48,76.79-.16,65.6,4.17S45.91,18.46,42.5,30.29a41.45,41.45,0,0,0-1.64,12.5,38.46,38.46,0,0,0,.8,7c2,9.48,7.33,17.7,14.92,22.38,9,5.53,19.5,5.47,27.16,5.42l28.14-.13.9,2.17.08.17,4.35,9.52a2,2,0,0,1-1.82,2.85H10.23a9.45,9.45,0,0,0-9.46,9.63,9.66,9.66,0,0,0,9.78,9.29H122.72a16.24,16.24,0,0,0,14.76-23l-4.89-10.67H398.82l-42.39,26.92a9.68,9.68,0,0,0-3.3,13,9.48,9.48,0,0,0,13.18,3.1l91-57.79A2.28,2.28,0,0,0,456.1,58.48Zm-352.16.07-20.3.09c-7.23,0-13.09-.13-17.13-2.61s-6.59-7.8-6.72-13.68C59.58,33.52,65,24.7,72.42,21.82A15.71,15.71,0,0,1,78,20.74a11.7,11.7,0,0,1,7.48,2.54c4.15,3.35,7,8.95,9.47,14.41S100,49,102.29,54.6C102.83,55.92,103.39,57.23,103.94,58.55Z"/><path class="cls-2" d="M135.49,257.49a17.85,17.85,0,1,1-2.39-8.88A17.63,17.63,0,0,1,135.49,257.49Z"/><path class="cls-2" d="M215.2,257.49a17.83,17.83,0,1,1-6.75-14A17.83,17.83,0,0,1,215.2,257.49Z"/><path class="cls-2" d="M523.29,150.68H404a6.31,6.31,0,1,0,0,12.61H523.29a6.31,6.31,0,1,0,0-12.61Z"/><path class="cls-2" d="M472.34,200.58a6.31,6.31,0,0,0-6.3-6.31H346.72a6.31,6.31,0,0,0,0,12.62H466A6.31,6.31,0,0,0,472.34,200.58Z"/><path class="cls-2" d="M408.78,237.87H289.47a6.31,6.31,0,1,0,0,12.61H408.78a6.31,6.31,0,1,0,0-12.61Z"/><path class="cls-2" d="M317.11,98.26H255.25a25.43,25.43,0,0,0-16.43,6,24.16,24.16,0,0,0-7,9.75,34.77,34.77,0,0,0-2.28,12.21c-.1,11.3,5.33,22.25,14.11,29.79h0a41.65,41.65,0,0,0,12.64,7.45,37.71,37.71,0,0,0,20.92,1.63q-1.54,2.3-3.17,4.53-2.71,3.73-5.65,7.28c-26.35,31.85-65.62,52.15-108.26,52.15A141.69,141.69,0,0,1,27.74,137.34a9.25,9.25,0,0,0-8.65-6h0a9.27,9.27,0,0,0-8.67,12.54,161,161,0,0,0,85,90,18.35,18.35,0,0,0,14.58.28,22.41,22.41,0,0,1,26.17,6.49,18.46,18.46,0,0,0,13.13,6.57c3.6.24,7.23.37,10.9.37,1.31,0,2.63,0,3.94-.06a18.77,18.77,0,0,0,14-6.9,22.4,22.4,0,0,1,27-6.07,19.06,19.06,0,0,0,15.74.58,161.54,161.54,0,0,0,46.85-30.54,167.1,167.1,0,0,0,27.49-33.19q3.42-5.44,6.41-11.14,2.4-4.53,4.49-9.2A162.45,162.45,0,0,0,313,133.15a149,149,0,0,0,3.59-15.71c.15-.8.29-1.6.43-2.38,1-5.84,1.84-11.3,2.26-14.34A2.17,2.17,0,0,0,317.11,98.26ZM294.75,130c-3.2,9.59-11.35,17.06-20.7,18.91A23.4,23.4,0,0,1,260,147.53a23.74,23.74,0,0,1-10.34-9.09,21,21,0,0,1-3.34-11.33,18.4,18.4,0,0,1,1.22-6.58,11.48,11.48,0,0,1,10.72-7.14H298.2A144.88,144.88,0,0,1,294.75,130Z"/></svg>